<svg version="1.1" viewBox="0.0 0.0 960.0 720.0" fill="none" stroke="none" stroke-linecap="square" stroke-miterlimit="10" xmlns:xlink="http://www.w3.org/1999/xlink" xmlns="http://www.w3.org/2000/svg"><clipPath id="p.0"><path d="m0 0l960.0 0l0 720.0l-960.0 0l0 -720.0z" clip-rule="nonzero"/></clipPath><g clip-path="url(#p.0)"><path fill="#000000" fill-opacity="0.0" d="m0 0l960.0 0l0 720.0l-960.0 0z" fill-rule="evenodd"/><path fill="#434343" d="m324.332 526.7715l0 0c-73.65158 -73.65158 -83.17389 -183.54202 -21.268677 -245.44724l0 0c29.727905 -29.727905 72.28842 -44.18808 118.318695 -40.199432c46.030304 3.9886475 91.759766 26.099396 127.12848 61.46811l0 0c73.65161 73.65158 83.17389 183.54202 21.268677 245.44724l0 0c-61.90518 61.905212 -171.79562 52.382874 -245.44717 -21.268677z" fill-rule="evenodd"/><path stroke="#000000" stroke-width="1.0" stroke-linejoin="round" stroke-linecap="butt" d="m324.332 526.7715l0 0c-73.65158 -73.65158 -83.17389 -183.54202 -21.268677 -245.44724l0 0c29.727905 -29.727905 72.28842 -44.18808 118.318695 -40.199432c46.030304 3.9886475 91.759766 26.099396 127.12848 61.46811l0 0c73.65161 73.65158 83.17389 183.54202 21.268677 245.44724l0 0c-61.90518 61.905212 -171.79562 52.382874 -245.44717 -21.268677z" fill-rule="evenodd"/><path fill="#434343" d="m303.05017 281.32132l35.009827 -35.00981l266.71588 266.71588l-35.009827 35.009827z" fill-rule="evenodd"/><path fill="#000000" fill-opacity="0.0" d="m337.01324 247.35945l-33.940796 33.985336" fill-rule="evenodd"/><path stroke="#000000" stroke-width="1.0" stroke-linejoin="round" stroke-linecap="butt" d="m337.01324 247.35945l-33.940796 33.985336" fill-rule="evenodd"/><path fill="#000000" fill-opacity="0.0" d="m603.7219 514.0996l-33.940796 33.940796" fill-rule="evenodd"/><path stroke="#000000" stroke-width="1.0" stroke-linejoin="round" stroke-linecap="butt" d="m603.7219 514.0996l-33.940796 33.940796" fill-rule="evenodd"/><path fill="#ffc55b" d="m358.28882 492.824l0 0c-73.649536 -73.658264 -83.17496 -183.55649 -21.275574 -245.46455l0 0c29.725128 -29.72931 72.28259 -44.18953 118.31021 -40.199585c46.02762 3.9899445 91.7551 26.103226 127.12283 61.475174l0 0c73.6496 73.658264 83.17499 183.55649 21.275635 245.46457l0 0c-61.899414 61.90808 -171.78354 52.38269 -245.4331 -21.275604z" fill-rule="evenodd"/><path stroke="#000000" stroke-width="1.0" stroke-linejoin="round" stroke-linecap="butt" d="m358.28882 492.824l0 0c-73.649536 -73.658264 -83.17496 -183.55649 -21.275574 -245.46455l0 0c29.725128 -29.72931 72.28259 -44.18953 118.31021 -40.199585c46.02762 3.9899445 91.7551 26.103226 127.12283 61.475174l0 0c73.6496 73.658264 83.17499 183.55649 21.275635 245.46457l0 0c-61.899414 61.90808 -171.78354 52.38269 -245.4331 -21.275604z" fill-rule="evenodd"/><path fill="#ffffff" d="m378.49243 472.6279l0 0c-60.386017 -60.394745 -68.19812 -150.49478 -17.448822 -201.24411l0 0c24.370697 -24.370682 59.262787 -36.22197 97.00043 -32.94673c37.73764 3.275238 75.22952 21.408737 104.227936 50.4113l0 0c60.386047 60.394714 68.19812 150.49478 17.448792 201.24408l0 0c-50.749268 50.74936 -140.84229 42.930145 -201.22833 -17.464539z" fill-rule="evenodd"/><path stroke="#000000" stroke-width="1.0" stroke-linejoin="round" stroke-linecap="butt" stroke-dasharray="1.0,3.0" d="m378.49243 472.6279l0 0c-60.386017 -60.394745 -68.19812 -150.49478 -17.448822 -201.24411l0 0c24.370697 -24.370682 59.262787 -36.22197 97.00043 -32.94673c37.73764 3.275238 75.22952 21.408737 104.227936 50.4113l0 0c60.386047 60.394714 68.19812 150.49478 17.448792 201.24408l0 0c-50.749268 50.74936 -140.84229 42.930145 -201.22833 -17.464539z" fill-rule="evenodd"/><path fill="#ffa500" d="m403.768 447.33234l0 0c-43.774017 -43.774017 -49.43567 -109.084015 -12.645691 -145.87402l0 0c17.667175 -17.667175 42.961334 -26.260193 70.31802 -23.888672c27.356659 2.371521 54.535004 15.513336 75.556 36.534332l0 0c43.773987 43.774017 49.43567 109.084045 12.645691 145.87402l0 0c-36.79004 36.79001 -102.10004 31.128326 -145.87402 -12.64566z" fill-rule="evenodd"/><path stroke="#000000" stroke-width="1.0" stroke-linejoin="round" stroke-linecap="butt" stroke-dasharray="1.0,3.0" d="m403.768 447.33234l0 0c-43.774017 -43.774017 -49.43567 -109.084015 -12.645691 -145.87402l0 0c17.667175 -17.667175 42.961334 -26.260193 70.31802 -23.888672c27.356659 2.371521 54.535004 15.513336 75.556 36.534332l0 0c43.773987 43.774017 49.43567 109.084045 12.645691 145.87402l0 0c-36.79004 36.79001 -102.10004 31.128326 -145.87402 -12.64566z" fill-rule="evenodd"/><path fill="#c1121f" d="m433.543 417.57022l0 0c-26.90976 -26.918457 -32.23297 -65.2316 -11.8897705 -85.5748l0 0c9.769165 -9.769165 24.271637 -14.003082 40.317078 -11.770386c16.04544 2.232727 32.319458 10.749207 45.241974 23.675873l0 0c26.909729 26.918457 32.23297 65.2316 11.8897705 85.57483l0 0c-20.343231 20.3432 -58.649323 15.012909 -85.55905 -11.905518z" fill-rule="evenodd"/><path stroke="#000000" stroke-width="1.0" stroke-linejoin="round" stroke-linecap="butt" stroke-dasharray="1.0,3.0" d="m433.543 417.57022l0 0c-26.90976 -26.918457 -32.23297 -65.2316 -11.8897705 -85.5748l0 0c9.769165 -9.769165 24.271637 -14.003082 40.317078 -11.770386c16.04544 2.232727 32.319458 10.749207 45.241974 23.675873l0 0c26.909729 26.918457 32.23297 65.2316 11.8897705 85.57483l0 0c-20.343231 20.3432 -58.649323 15.012909 -85.55905 -11.905518z" fill-rule="evenodd"/><path fill="#fdf0d5" d="m459.2583 391.84586l0 0c-8.123383 -8.123383 -9.7309265 -19.686401 -3.5905457 -25.826782l0 0c2.9487 -2.9487 7.326294 -4.2269897 12.169739 -3.5536194c4.8434753 0.67337036 9.7560425 3.2431946 13.657013 7.144165l0 0c8.123383 8.123383 9.7309265 19.686432 3.5905457 25.826782l0 0c-6.1403503 6.1403503 -17.7034 4.5328064 -25.826752 -3.5905457z" fill-rule="evenodd"/><path stroke="#000000" stroke-width="1.0" stroke-linejoin="round" stroke-linecap="butt" stroke-dasharray="1.0,3.0" d="m459.2583 391.84586l0 0c-8.123383 -8.123383 -9.7309265 -19.686401 -3.5905457 -25.826782l0 0c2.9487 -2.9487 7.326294 -4.2269897 12.169739 -3.5536194c4.8434753 0.67337036 9.7560425 3.2431946 13.657013 7.144165l0 0c8.123383 8.123383 9.7309265 19.686432 3.5905457 25.826782l0 0c-6.1403503 6.1403503 -17.7034 4.5328064 -25.826752 -3.5905457z" fill-rule="evenodd"/><path fill="#ffffff" d="m584.3535 241.86708l28.362183 -28.362213l0 0l5.8425293 5.8425293l0 11.685028l-28.362244 28.362198l0 0l-5.8424683 -5.842514z" fill-rule="evenodd"/><path stroke="#000000" stroke-width="1.0" stroke-linejoin="round" stroke-linecap="butt" d="m584.3535 241.86708l28.362183 -28.362213l0 0l5.8425293 5.8425293l0 11.685028l-28.362244 28.362198l0 0l-5.8424683 -5.842514z" fill-rule="evenodd"/><path fill="#ffffff" d="m607.9266 265.0644l27.984253 -27.984253l0 0l-5.8424683 -5.842514l-11.685059 0l-27.984253 27.984238l0 0l5.8425293 5.8425293z" fill-rule="evenodd"/><path stroke="#000000" stroke-width="1.0" stroke-linejoin="round" stroke-linecap="butt" d="m607.9266 265.0644l27.984253 -27.984253l0 0l-5.8424683 -5.842514l-11.685059 0l-27.984253 27.984238l0 0l5.8425293 5.8425293z" fill-rule="evenodd"/><path fill="#000000" d="m468.12244 376.89612l151.81104 -151.81102l4.5668945 4.598419l-151.811 151.81102z" fill-rule="evenodd"/><path stroke="#000000" stroke-width="1.0" stroke-linejoin="round" stroke-linecap="butt" d="m468.12244 376.89612l151.81104 -151.81102l4.5668945 4.598419l-151.811 151.81102z" fill-rule="evenodd"/></g></svg>